G04 DipTrace 4.1.3.1*
G04 BottomSilk.gbr*
%MOIN*%
G04 #@! TF.FileFunction,Legend,Bot*
G04 #@! TF.Part,Single*
%ADD10C,0.009843*%
%ADD13C,0.004724*%
%ADD25C,0.003937*%
%ADD60C,0.003088*%
%FSLAX26Y26*%
G04*
G70*
G90*
G75*
G01*
G04 BotSilk*
%LPD*%
X1864354Y1766972D2*
D10*
Y1704043D1*
X1856906Y1766972D2*
Y1704043D1*
Y1766972D2*
X1880465D1*
X1856906Y1704043D2*
X1880465D1*
X1544517Y1221121D2*
X1544520Y1284050D1*
X1551966Y1221120D2*
X1551968Y1284049D1*
X1551966Y1221120D2*
X1528407Y1221121D1*
X1551968Y1284049D2*
X1528409Y1284050D1*
X1237382Y1514874D2*
X1237379Y1577803D1*
X1244831Y1514875D2*
X1244828Y1577804D1*
X1244831Y1514875D2*
X1221272Y1514873D1*
X1244828Y1577804D2*
X1221269Y1577803D1*
X1116778Y1491828D2*
Y1542970D1*
Y1572034D2*
Y1623176D1*
X1912512Y1195814D2*
Y1144672D1*
X680760Y1392396D2*
X680757Y1443537D1*
X1393054Y1876431D2*
X1444196Y1876433D1*
X1166283Y684081D2*
X1115142D1*
X1536538Y1158335D2*
X1536541Y985120D1*
X1650711Y1158337D2*
X1650714Y985122D1*
G36*
X1605442Y1197702D2*
X1605341Y1196160D1*
X1605039Y1194645D1*
X1604543Y1193182D1*
X1603859Y1191796D1*
X1603001Y1190511D1*
X1601982Y1189349D1*
X1600821Y1188331D1*
X1599536Y1187472D1*
X1598150Y1186789D1*
X1596687Y1186292D1*
X1595172Y1185991D1*
X1593630Y1185890D1*
X1592088Y1185991D1*
X1590573Y1186292D1*
X1589110Y1186789D1*
X1587724Y1187472D1*
X1586440Y1188330D1*
X1585278Y1189349D1*
X1584259Y1190511D1*
X1583401Y1191795D1*
X1582717Y1193181D1*
X1582221Y1194644D1*
X1581919Y1196160D1*
X1581818Y1197701D1*
Y1197709D1*
X1581919Y1199251D1*
X1582221Y1200766D1*
X1582717Y1202229D1*
X1583401Y1203615D1*
X1584259Y1204900D1*
X1585278Y1206061D1*
X1586439Y1207080D1*
X1587724Y1207938D1*
X1589110Y1208622D1*
X1590573Y1209118D1*
X1592088Y1209420D1*
X1593630Y1209521D1*
X1595171Y1209420D1*
X1596687Y1209119D1*
X1598150Y1208622D1*
X1599536Y1207939D1*
X1600820Y1207080D1*
X1601982Y1206062D1*
X1603001Y1204900D1*
X1603859Y1203615D1*
X1604542Y1202230D1*
X1605039Y1200767D1*
X1605340Y1199251D1*
X1605442Y1197710D1*
Y1197702D1*
G37*
X1026239Y1003008D2*
D13*
X1023090D1*
X1023086Y1160489D1*
X1026236D1*
X1216003Y1003013D2*
X1219153D1*
X1219149Y1160493D1*
X1216000D1*
G36*
X1028597Y1208520D2*
X1028513Y1207236D1*
X1028262Y1205973D1*
X1027848Y1204754D1*
X1027278Y1203599D1*
X1026563Y1202529D1*
X1025714Y1201561D1*
X1024746Y1200712D1*
X1023676Y1199996D1*
X1022521Y1199427D1*
X1021302Y1199013D1*
X1020039Y1198762D1*
X1018755Y1198678D1*
X1017470Y1198762D1*
X1016207Y1199013D1*
X1014988Y1199427D1*
X1013833Y1199996D1*
X1012763Y1200711D1*
X1011795Y1201560D1*
X1010946Y1202528D1*
X1010231Y1203599D1*
X1009661Y1204753D1*
X1009247Y1205972D1*
X1008996Y1207235D1*
X1008912Y1208520D1*
D1*
X1008996Y1209805D1*
X1009247Y1211067D1*
X1009661Y1212286D1*
X1010230Y1213441D1*
X1010946Y1214512D1*
X1011795Y1215480D1*
X1012763Y1216329D1*
X1013833Y1217044D1*
X1014988Y1217613D1*
X1016207Y1218027D1*
X1017470Y1218278D1*
X1018754Y1218363D1*
X1020039Y1218278D1*
X1021302Y1218027D1*
X1022521Y1217614D1*
X1023675Y1217044D1*
X1024746Y1216329D1*
X1025714Y1215480D1*
X1026563Y1214512D1*
X1027278Y1213442D1*
X1027848Y1212287D1*
X1028262Y1211068D1*
X1028513Y1209805D1*
X1028597Y1208520D1*
D1*
G37*
X1390385Y1492823D2*
D25*
X1369125Y1492822D1*
X1369119Y1650302D1*
X1390379Y1650303D1*
X1741566Y1492836D2*
X1762826Y1492837D1*
X1762820Y1650317D1*
X1741560Y1650316D1*
G36*
X1392346Y1690461D2*
X1392262Y1689176D1*
X1392011Y1687913D1*
X1391597Y1686694D1*
X1391028Y1685540D1*
X1390312Y1684469D1*
X1389463Y1683501D1*
X1388496Y1682652D1*
X1387425Y1681937D1*
X1386270Y1681367D1*
X1385051Y1680953D1*
X1383789Y1680702D1*
X1382504Y1680618D1*
X1381219Y1680702D1*
X1379956Y1680953D1*
X1378737Y1681367D1*
X1377583Y1681936D1*
X1376512Y1682652D1*
X1375544Y1683500D1*
X1374695Y1684468D1*
X1373980Y1685539D1*
X1373410Y1686694D1*
X1372996Y1687913D1*
X1372745Y1689175D1*
X1372661Y1690460D1*
D1*
X1372745Y1691745D1*
X1372996Y1693008D1*
X1373410Y1694227D1*
X1373979Y1695381D1*
X1374695Y1696452D1*
X1375544Y1697420D1*
X1376511Y1698269D1*
X1377582Y1698984D1*
X1378737Y1699554D1*
X1379956Y1699968D1*
X1381218Y1700219D1*
X1382503Y1700303D1*
X1383788Y1700219D1*
X1385051Y1699968D1*
X1386270Y1699554D1*
X1387424Y1698985D1*
X1388495Y1698269D1*
X1389463Y1697420D1*
X1390312Y1696452D1*
X1391027Y1695382D1*
X1391597Y1694227D1*
X1392011Y1693008D1*
X1392262Y1691746D1*
X1392346Y1690461D1*
D1*
G37*
X1499666Y1129114D2*
D13*
X1502815D1*
X1502820Y971634D1*
X1499670D1*
X1309114Y1129109D2*
X1305965D1*
X1305970Y971628D1*
X1309119D1*
G36*
X1497309Y923996D2*
X1497394Y925281D1*
X1497645Y926544D1*
X1498059Y927763D1*
X1498628Y928917D1*
X1499343Y929988D1*
X1500192Y930956D1*
X1501160Y931805D1*
X1502230Y932520D1*
X1503385Y933090D1*
X1504604Y933503D1*
X1505867Y933755D1*
X1507152Y933839D1*
X1508436Y933755D1*
X1509699Y933504D1*
X1510918Y933090D1*
X1512073Y932520D1*
X1513144Y931805D1*
X1514112Y930956D1*
X1514960Y929988D1*
X1515676Y928918D1*
X1516245Y927763D1*
X1516659Y926544D1*
X1516910Y925281D1*
X1516995Y923997D1*
D1*
X1516910Y922712D1*
X1516659Y921449D1*
X1516245Y920230D1*
X1515676Y919075D1*
X1514961Y918005D1*
X1514112Y917037D1*
X1513144Y916188D1*
X1512074Y915473D1*
X1510919Y914903D1*
X1509700Y914489D1*
X1508437Y914238D1*
X1507152Y914154D1*
X1505868Y914238D1*
X1504605Y914489D1*
X1503386Y914903D1*
X1502231Y915472D1*
X1501160Y916188D1*
X1500192Y917036D1*
X1499344Y918004D1*
X1498628Y919075D1*
X1498059Y920230D1*
X1497645Y921449D1*
X1497394Y922711D1*
X1497309Y923996D1*
D1*
G37*
G36*
X1892177Y1212277D2*
X1892111Y1211272D1*
X1891914Y1210284D1*
X1891591Y1209331D1*
X1891146Y1208428D1*
X1890586Y1207591D1*
X1889922Y1206834D1*
X1889165Y1206170D1*
X1888328Y1205610D1*
X1887425Y1205165D1*
X1886472Y1204841D1*
X1885484Y1204645D1*
X1884479Y1204579D1*
X1883475Y1204645D1*
X1882487Y1204841D1*
X1881534Y1205165D1*
X1880631Y1205610D1*
X1879793Y1206169D1*
X1879036Y1206833D1*
X1878372Y1207590D1*
X1877813Y1208427D1*
X1877368Y1209330D1*
X1877044Y1210284D1*
X1876848Y1211271D1*
X1876782Y1212276D1*
Y1212281D1*
X1876847Y1213286D1*
X1877044Y1214274D1*
X1877367Y1215227D1*
X1877813Y1216130D1*
X1878372Y1216967D1*
X1879036Y1217724D1*
X1879793Y1218388D1*
X1880630Y1218948D1*
X1881533Y1219393D1*
X1882487Y1219717D1*
X1883474Y1219913D1*
X1884479Y1219979D1*
X1885484Y1219913D1*
X1886471Y1219717D1*
X1887425Y1219393D1*
X1888328Y1218948D1*
X1889165Y1218389D1*
X1889922Y1217725D1*
X1890586Y1216968D1*
X1891145Y1216131D1*
X1891591Y1215228D1*
X1891914Y1214274D1*
X1892111Y1213287D1*
X1892177Y1212282D1*
Y1212277D1*
G37*
X1938544Y1217544D2*
D10*
X1938540Y1335652D1*
X1970035Y1217545D2*
X1970030Y1335653D1*
X1938540Y1335652D2*
X1970030Y1335653D1*
X1938544Y1217544D2*
X1970035Y1217545D1*
G36*
X664073Y1367115D2*
X664139Y1368120D1*
X664335Y1369108D1*
X664659Y1370061D1*
X665104Y1370964D1*
X665664Y1371801D1*
X666327Y1372558D1*
X667084Y1373222D1*
X667922Y1373782D1*
X668825Y1374227D1*
X669778Y1374551D1*
X670766Y1374747D1*
X671770Y1374813D1*
X672775Y1374747D1*
X673763Y1374551D1*
X674716Y1374227D1*
X675619Y1373782D1*
X676456Y1373223D1*
X677213Y1372559D1*
X677877Y1371802D1*
X678437Y1370964D1*
X678882Y1370061D1*
X679206Y1369108D1*
X679402Y1368120D1*
X679468Y1367116D1*
Y1367111D1*
X679402Y1366106D1*
X679206Y1365118D1*
X678882Y1364165D1*
X678437Y1363262D1*
X677878Y1362425D1*
X677214Y1361667D1*
X676457Y1361004D1*
X675620Y1360444D1*
X674717Y1359999D1*
X673763Y1359675D1*
X672776Y1359479D1*
X671771Y1359413D1*
X670766Y1359479D1*
X669779Y1359675D1*
X668825Y1359999D1*
X667922Y1360444D1*
X667085Y1361003D1*
X666328Y1361667D1*
X665664Y1362424D1*
X665104Y1363261D1*
X664659Y1364164D1*
X664335Y1365118D1*
X664139Y1366105D1*
X664073Y1367110D1*
Y1367115D1*
G37*
X617706Y1361848D2*
D10*
X617709Y1243741D1*
X586215Y1361847D2*
X586218Y1243740D1*
X617709Y1243741D2*
X586218Y1243740D1*
X617706Y1361848D2*
X586215Y1361847D1*
G36*
X1366461Y1891828D2*
X1367466Y1891762D1*
X1368453Y1891566D1*
X1369407Y1891242D1*
X1370310Y1890797D1*
X1371147Y1890237D1*
X1371904Y1889573D1*
X1372568Y1888816D1*
X1373128Y1887979D1*
X1373573Y1887076D1*
X1373897Y1886123D1*
X1374093Y1885135D1*
X1374159Y1884131D1*
X1374093Y1883126D1*
X1373897Y1882138D1*
X1373573Y1881185D1*
X1373128Y1880282D1*
X1372568Y1879445D1*
X1371905Y1878688D1*
X1371148Y1878024D1*
X1370310Y1877464D1*
X1369407Y1877019D1*
X1368454Y1876695D1*
X1367466Y1876499D1*
X1366462Y1876433D1*
X1366456D1*
X1365452Y1876499D1*
X1364464Y1876695D1*
X1363511Y1877019D1*
X1362608Y1877464D1*
X1361770Y1878023D1*
X1361013Y1878687D1*
X1360350Y1879444D1*
X1359790Y1880281D1*
X1359345Y1881184D1*
X1359021Y1882138D1*
X1358825Y1883125D1*
X1358759Y1884130D1*
X1358824Y1885135D1*
X1359021Y1886122D1*
X1359344Y1887076D1*
X1359790Y1887979D1*
X1360349Y1888816D1*
X1361013Y1889573D1*
X1361770Y1890237D1*
X1362607Y1890796D1*
X1363510Y1891242D1*
X1364464Y1891565D1*
X1365451Y1891762D1*
X1366456Y1891828D1*
X1366461D1*
G37*
X1361193Y1938195D2*
D10*
X1243086Y1938190D1*
X1361192Y1969686D2*
X1243085Y1969681D1*
X1243086Y1938190D2*
X1243085Y1969681D1*
X1361193Y1938195D2*
X1361192Y1969686D1*
G36*
X1211513Y653181D2*
X1210508Y653247D1*
X1209520Y653443D1*
X1208567Y653767D1*
X1207664Y654212D1*
X1206827Y654772D1*
X1206070Y655436D1*
X1205406Y656193D1*
X1204846Y657030D1*
X1204401Y657933D1*
X1204077Y658887D1*
X1203881Y659874D1*
X1203815Y660879D1*
X1203881Y661884D1*
X1204078Y662871D1*
X1204401Y663824D1*
X1204847Y664728D1*
X1205406Y665565D1*
X1206070Y666322D1*
X1206827Y666986D1*
X1207664Y667545D1*
X1208567Y667990D1*
X1209521Y668314D1*
X1210508Y668510D1*
X1211513Y668576D1*
X1211518D1*
X1212523Y668510D1*
X1213510Y668314D1*
X1214464Y667990D1*
X1215367Y667545D1*
X1216204Y666985D1*
X1216961Y666321D1*
X1217625Y665564D1*
X1218184Y664727D1*
X1218630Y663824D1*
X1218953Y662871D1*
X1219150Y661883D1*
X1219215Y660878D1*
X1219150Y659874D1*
X1218953Y658886D1*
X1218629Y657933D1*
X1218184Y657030D1*
X1217625Y656193D1*
X1216961Y655436D1*
X1216204Y654772D1*
X1215367Y654212D1*
X1214464Y653767D1*
X1213510Y653443D1*
X1212523Y653247D1*
X1211518Y653181D1*
X1211513D1*
G37*
X1216777Y606814D2*
D10*
X1334885Y606811D1*
X1216777Y575323D2*
X1334884Y575320D1*
X1334885Y606811D2*
X1334884Y575320D1*
X1216777Y606814D2*
Y575323D1*
X1607554Y1590444D2*
D60*
X1620001D1*
Y1570348D1*
Y1580871D2*
X1612351D1*
X1588954Y1590444D2*
X1601378D1*
Y1570348D1*
X1588954D1*
X1601378Y1580871D2*
X1593729D1*
X1582778Y1586597D2*
X1580854Y1587570D1*
X1577980Y1590421D1*
Y1570348D1*
X1570854Y1572271D2*
X1571805Y1571298D1*
X1570854Y1570348D1*
X1569881Y1571298D1*
X1570854Y1572271D1*
X1563706Y1586597D2*
X1561782Y1587570D1*
X1558908Y1590421D1*
Y1570348D1*
X1539335Y1587570D2*
X1541237Y1589493D1*
X1544111Y1590444D1*
X1547935D1*
X1550809Y1589493D1*
X1552733Y1587570D1*
Y1585668D1*
X1551760Y1583745D1*
X1550809Y1582794D1*
X1548908Y1581844D1*
X1543160Y1579920D1*
X1541237Y1578970D1*
X1540286Y1577997D1*
X1539335Y1576096D1*
Y1573222D1*
X1541237Y1571320D1*
X1544111Y1570348D1*
X1547935D1*
X1550809Y1571320D1*
X1552733Y1573222D1*
X1455637Y1056245D2*
Y1057195D1*
X1454686Y1059119D1*
X1453736Y1060069D1*
X1451812Y1061020D1*
X1447988D1*
X1446086Y1060069D1*
X1445136Y1059119D1*
X1444163Y1057195D1*
Y1055294D1*
X1445136Y1053371D1*
X1447037Y1050519D1*
X1456610Y1040946D1*
X1443212D1*
X1427464D2*
Y1061020D1*
X1437037Y1047645D1*
X1422689D1*
X1402165Y1056267D2*
X1403116Y1058168D1*
X1405039Y1060091D1*
X1406940Y1061042D1*
X1410765D1*
X1412688Y1060091D1*
X1414590Y1058168D1*
X1415562Y1056267D1*
X1416513Y1053393D1*
Y1048595D1*
X1415562Y1045743D1*
X1414590Y1043820D1*
X1412688Y1041919D1*
X1410765Y1040946D1*
X1406940D1*
X1405039Y1041919D1*
X1403116Y1043820D1*
X1402165Y1045743D1*
X1390241Y1061020D2*
X1393115Y1060069D1*
X1395039Y1057195D1*
X1395989Y1052420D1*
Y1049546D1*
X1395039Y1044771D1*
X1393115Y1041897D1*
X1390241Y1040946D1*
X1388340D1*
X1385466Y1041897D1*
X1383565Y1044771D1*
X1382592Y1049546D1*
Y1052420D1*
X1383565Y1057195D1*
X1385466Y1060069D1*
X1388340Y1061020D1*
X1390241D1*
X1383565Y1057195D2*
X1395039Y1044771D1*
X1375444Y1056245D2*
Y1057195D1*
X1374493Y1059119D1*
X1373542Y1060069D1*
X1371619Y1061020D1*
X1367794D1*
X1365893Y1060069D1*
X1364942Y1059119D1*
X1363970Y1057195D1*
Y1055294D1*
X1364942Y1053371D1*
X1366844Y1050519D1*
X1376416Y1040946D1*
X1363019D1*
X1247315Y1167028D2*
X1227219D1*
X1247315Y1174677D1*
X1227219Y1182326D1*
X1247315D1*
X1227219Y1160852D2*
X1247315D1*
X1231994Y1140328D2*
X1230093Y1141279D1*
X1228170Y1143202D1*
X1227219Y1145104D1*
Y1148928D1*
X1228170Y1150852D1*
X1230093Y1152753D1*
X1231994Y1153726D1*
X1234868Y1154676D1*
X1239666D1*
X1242518Y1153726D1*
X1244441Y1152753D1*
X1246342Y1150852D1*
X1247315Y1148928D1*
Y1145104D1*
X1246342Y1143202D1*
X1244441Y1141279D1*
X1242518Y1140328D1*
X1232017Y1133180D2*
X1231066D1*
X1229143Y1132229D1*
X1228192Y1131279D1*
X1227241Y1129355D1*
Y1125531D1*
X1228192Y1123629D1*
X1229143Y1122679D1*
X1231066Y1121706D1*
X1232967D1*
X1234891Y1122679D1*
X1237742Y1124580D1*
X1247315Y1134153D1*
Y1120755D1*
X1227241Y1108832D2*
X1228192Y1111706D1*
X1231066Y1113629D1*
X1235841Y1114580D1*
X1238715D1*
X1243491Y1113629D1*
X1246365Y1111706D1*
X1247315Y1108832D1*
Y1106930D1*
X1246365Y1104056D1*
X1243491Y1102155D1*
X1238715Y1101182D1*
X1235841D1*
X1231066Y1102155D1*
X1228192Y1104056D1*
X1227241Y1106930D1*
Y1108832D1*
X1231066Y1102155D2*
X1243491Y1113629D1*
X1232017Y1094034D2*
X1231066D1*
X1229143Y1093083D1*
X1228192Y1092133D1*
X1227241Y1090209D1*
Y1086385D1*
X1228192Y1084483D1*
X1229143Y1083533D1*
X1231066Y1082560D1*
X1232967D1*
X1234891Y1083533D1*
X1237742Y1085434D1*
X1247315Y1095007D1*
Y1081609D1*
X1230093Y1063960D2*
X1228192Y1064910D1*
X1227241Y1067784D1*
Y1069686D1*
X1228192Y1072560D1*
X1231066Y1074483D1*
X1235841Y1075434D1*
X1240617D1*
X1244441Y1074483D1*
X1246365Y1072560D1*
X1247315Y1069686D1*
Y1068735D1*
X1246365Y1065883D1*
X1244441Y1063960D1*
X1241567Y1063009D1*
X1240617D1*
X1237742Y1063960D1*
X1235841Y1065883D1*
X1234891Y1068735D1*
Y1069686D1*
X1235841Y1072560D1*
X1237742Y1074483D1*
X1240617Y1075434D1*
X1237278Y1056833D2*
Y1045779D1*
X1232017Y1038631D2*
X1231066D1*
X1229143Y1037680D1*
X1228192Y1036730D1*
X1227241Y1034806D1*
Y1030982D1*
X1228192Y1029080D1*
X1229143Y1028130D1*
X1231066Y1027157D1*
X1232967D1*
X1234891Y1028130D1*
X1237742Y1030031D1*
X1247315Y1039604D1*
Y1026206D1*
X1227219Y1020031D2*
X1236792Y1012381D1*
X1247315D1*
X1227219Y1004732D2*
X1236792Y1012381D1*
X1247315Y983258D2*
X1227219D1*
X1247315Y990907D1*
X1227219Y998556D1*
X1247315D1*
X1980689Y1734065D2*
X1979739Y1732164D1*
X1977815Y1730240D1*
X1975914Y1729290D1*
X1972089D1*
X1970166Y1730240D1*
X1968265Y1732164D1*
X1967292Y1734065D1*
X1966341Y1736939D1*
Y1741736D1*
X1967292Y1744588D1*
X1968265Y1746511D1*
X1970166Y1748413D1*
X1972089Y1749386D1*
X1975914D1*
X1977815Y1748413D1*
X1979739Y1746511D1*
X1980689Y1744588D1*
X1987838Y1734087D2*
Y1733136D1*
X1988788Y1731213D1*
X1989739Y1730262D1*
X1991662Y1729312D1*
X1995487D1*
X1997388Y1730262D1*
X1998339Y1731213D1*
X1999312Y1733136D1*
Y1735038D1*
X1998339Y1736961D1*
X1996438Y1739813D1*
X1986865Y1749386D1*
X2000262D1*
X1543835Y1204837D2*
X1544786Y1206738D1*
X1546709Y1208661D1*
X1548610Y1209612D1*
X1552435D1*
X1554358Y1208661D1*
X1556260Y1206737D1*
X1557232Y1204836D1*
X1558183Y1201962D1*
Y1197165D1*
X1557232Y1194313D1*
X1556259Y1192389D1*
X1554358Y1190488D1*
X1552434Y1189516D1*
X1548610D1*
X1546708Y1190489D1*
X1544785Y1192390D1*
X1543835Y1194313D1*
X1535736Y1209590D2*
X1525235Y1209591D1*
X1530960Y1201941D1*
X1528086D1*
X1526185Y1200991D1*
X1525234Y1200040D1*
X1524262Y1197166D1*
Y1195265D1*
X1525234Y1192391D1*
X1527135Y1190467D1*
X1530009Y1189516D1*
X1532883D1*
X1535735Y1190467D1*
X1536686Y1191440D1*
X1537659Y1193341D1*
X1236135Y1606286D2*
X1237086Y1608187D1*
X1239009Y1610111D1*
X1240910Y1611061D1*
X1244735D1*
X1246658Y1610111D1*
X1248560Y1608188D1*
X1249532Y1606286D1*
X1250483Y1603412D1*
Y1598615D1*
X1249533Y1595763D1*
X1248560Y1593840D1*
X1246659Y1591938D1*
X1244736Y1590965D1*
X1240911D1*
X1239010Y1591938D1*
X1237086Y1593839D1*
X1236136Y1595762D1*
X1220387Y1590964D2*
X1220386Y1611038D1*
X1229960Y1597663D1*
X1215612D1*
X1024532Y1474179D2*
X1025483Y1476081D1*
X1027406Y1478004D1*
X1029308Y1478955D1*
X1033132D1*
X1035056Y1478004D1*
X1036957Y1476081D1*
X1037930Y1474179D1*
X1038880Y1471305D1*
Y1466508D1*
X1037930Y1463656D1*
X1036957Y1461733D1*
X1035056Y1459831D1*
X1033132Y1458859D1*
X1029308D1*
X1027406Y1459831D1*
X1025483Y1461733D1*
X1024532Y1463656D1*
X1006883Y1478932D2*
X1016433D1*
X1017384Y1470333D1*
X1016433Y1471283D1*
X1013559Y1472256D1*
X1010707D1*
X1007833Y1471283D1*
X1005910Y1469382D1*
X1004959Y1466508D1*
Y1464607D1*
X1005910Y1461733D1*
X1007833Y1459809D1*
X1010707Y1458859D1*
X1013559D1*
X1016433Y1459809D1*
X1017384Y1460782D1*
X1018357Y1462683D1*
X1024046Y1648649D2*
X1024997Y1650550D1*
X1026920Y1652474D1*
X1028821Y1653424D1*
X1032646D1*
X1034569Y1652474D1*
X1036471Y1650550D1*
X1037443Y1648649D1*
X1038394Y1645775D1*
Y1640978D1*
X1037443Y1638126D1*
X1036471Y1636202D1*
X1034569Y1634301D1*
X1032646Y1633328D1*
X1028821D1*
X1026920Y1634301D1*
X1024997Y1636202D1*
X1024046Y1638126D1*
X1006396Y1650550D2*
X1007347Y1652452D1*
X1010221Y1653402D1*
X1012122D1*
X1014996Y1652452D1*
X1016920Y1649578D1*
X1017870Y1644802D1*
Y1640027D1*
X1016920Y1636202D1*
X1014996Y1634279D1*
X1012122Y1633328D1*
X1011172D1*
X1008320Y1634279D1*
X1006396Y1636202D1*
X1005446Y1639076D1*
Y1640027D1*
X1006396Y1642901D1*
X1008320Y1644802D1*
X1011172Y1645753D1*
X1012122D1*
X1014996Y1644802D1*
X1016920Y1642901D1*
X1017870Y1640027D1*
X2005947Y1124200D2*
X2006898Y1126102D1*
X2008821Y1128025D1*
X2010722Y1128976D1*
X2014547D1*
X2016470Y1128025D1*
X2018372Y1126102D1*
X2019344Y1124200D1*
X2020295Y1121326D1*
Y1116529D1*
X2019344Y1113677D1*
X2018372Y1111754D1*
X2016470Y1109852D1*
X2014547Y1108880D1*
X2010722D1*
X2008821Y1109852D1*
X2006898Y1111754D1*
X2005947Y1113677D1*
X1999771Y1125129D2*
X1997848Y1126102D1*
X1994974Y1128953D1*
Y1108880D1*
X1988798Y1105563D2*
X1970626D1*
X1964450Y1125129D2*
X1962527Y1126102D1*
X1959653Y1128953D1*
Y1108880D1*
X738579Y1478199D2*
X739530Y1480101D1*
X741453Y1482024D1*
X743354Y1482975D1*
X747179D1*
X749102Y1482025D1*
X751003Y1480101D1*
X751976Y1478200D1*
X752927Y1475326D1*
Y1470529D1*
X751977Y1467677D1*
X751004Y1465753D1*
X749103Y1463852D1*
X747180Y1462879D1*
X743355D1*
X741454Y1463852D1*
X739530Y1465753D1*
X738579Y1467676D1*
X732403Y1479128D2*
X730480Y1480100D1*
X727606Y1482952D1*
X727607Y1462878D1*
X721431Y1459562D2*
X703258Y1459561D1*
X696109Y1478175D2*
Y1479126D1*
X695158Y1481049D1*
X694208Y1482000D1*
X692284Y1482951D1*
X688460Y1482950D1*
X686558Y1482000D1*
X685608Y1481049D1*
X684635Y1479126D1*
Y1477224D1*
X685608Y1475301D1*
X687509Y1472449D1*
X697083Y1462877D1*
X683685Y1462876D1*
X1464836Y1883312D2*
X1462935Y1884262D1*
X1461012Y1886186D1*
X1460061Y1888087D1*
Y1891912D1*
X1461011Y1893835D1*
X1462935Y1895736D1*
X1464836Y1896709D1*
X1467710Y1897660D1*
X1472507D1*
X1475359Y1896710D1*
X1477283Y1895737D1*
X1479184Y1893836D1*
X1480157Y1891912D1*
Y1888088D1*
X1479184Y1886186D1*
X1477283Y1884263D1*
X1475360Y1883312D1*
X1463908Y1877136D2*
X1462935Y1875213D1*
X1460084Y1872339D1*
X1480158D1*
X1483474Y1866164D2*
X1483475Y1847991D1*
X1460085Y1839891D2*
Y1829390D1*
X1467734Y1835116D1*
X1467735Y1832242D1*
X1468685Y1830341D1*
X1469636Y1829390D1*
X1472510Y1828418D1*
X1474411D1*
X1477285Y1829391D1*
X1479209Y1831292D1*
X1480159Y1834166D1*
Y1837040D1*
X1479208Y1839892D1*
X1478235Y1840843D1*
X1476334Y1841815D1*
X1070962Y723490D2*
X1069061Y724441D1*
X1067138Y726364D1*
X1066187Y728265D1*
Y732090D1*
X1067138Y734013D1*
X1069061Y735915D1*
X1070962Y736887D1*
X1073836Y737838D1*
X1078634D1*
X1081486Y736887D1*
X1083409Y735915D1*
X1085310Y734013D1*
X1086283Y732090D1*
Y728265D1*
X1085310Y726364D1*
X1083409Y724441D1*
X1081486Y723490D1*
X1070034Y717314D2*
X1069061Y715391D1*
X1066209Y712517D1*
X1086283D1*
X1089599Y706341D2*
Y688169D1*
X1086283Y672420D2*
X1066209D1*
X1079584Y681993D1*
Y667645D1*
X1663624Y1008558D2*
X1683720D1*
Y1001860D1*
X1682748Y998986D1*
X1680847Y997062D1*
X1678923Y996111D1*
X1676071Y995161D1*
X1671274D1*
X1668400Y996111D1*
X1666499Y997062D1*
X1664575Y998985D1*
X1663624Y1001859D1*
Y1008558D1*
X1666499Y977511D2*
X1664598Y978462D1*
X1663647Y981336D1*
Y983237D1*
X1664597Y986111D1*
X1667471Y988034D1*
X1672247Y988985D1*
X1677022D1*
X1680847Y988034D1*
X1682770Y986111D1*
X1683721Y983237D1*
Y982287D1*
X1682770Y979435D1*
X1680847Y977511D1*
X1677973Y976560D1*
X1677022D1*
X1674148Y977511D1*
X1672247Y979434D1*
X1671296Y982286D1*
Y983237D1*
X1672247Y986111D1*
X1674148Y988034D1*
X1677022Y988985D1*
X1850735Y1595006D2*
X1866033Y1595005D1*
X1868908Y1595956D1*
X1869858Y1596928D1*
X1870831Y1598830D1*
Y1600753D1*
X1869858Y1602654D1*
X1868908Y1603605D1*
X1866034Y1604578D1*
X1864132D1*
X1855532Y1587857D2*
X1854581D1*
X1852658Y1586907D1*
X1851707Y1585956D1*
X1850757Y1584033D1*
Y1580208D1*
X1851707Y1578307D1*
X1852658Y1577356D1*
X1854581Y1576383D1*
X1856482D1*
X1858406Y1577356D1*
X1861258Y1579257D1*
X1870831Y1588829D1*
X1870830Y1575432D1*
X1949267Y1660388D2*
X1940667D1*
X1937793Y1661361D1*
X1936820Y1662312D1*
X1935869Y1664213D1*
Y1666136D1*
X1936820Y1668038D1*
X1937793Y1669011D1*
X1940667Y1669961D1*
X1949267D1*
Y1649865D1*
X1942568Y1660388D2*
X1935869Y1649865D1*
X1929694Y1666114D2*
X1927770Y1667087D1*
X1924896Y1669939D1*
Y1649865D1*
X1747373Y1131921D2*
Y1123321D1*
X1746400Y1120447D1*
X1745449Y1119474D1*
X1743548Y1118524D1*
X1741625D1*
X1739723Y1119474D1*
X1738751Y1120447D1*
X1737800Y1123321D1*
Y1131921D1*
X1757896D1*
X1747373Y1125222D2*
X1757896Y1118524D1*
X1742597Y1111375D2*
X1741647D1*
X1739723Y1110424D1*
X1738773Y1109474D1*
X1737822Y1107550D1*
Y1103726D1*
X1738773Y1101825D1*
X1739723Y1100874D1*
X1741647Y1099901D1*
X1743548D1*
X1745471Y1100874D1*
X1748323Y1102775D1*
X1757896Y1112348D1*
Y1098951D1*
X1270871Y1465325D2*
X1262271D1*
X1259397Y1466297D1*
X1258424Y1467248D1*
X1257473Y1469149D1*
Y1471072D1*
X1258424Y1472974D1*
X1259396Y1473947D1*
X1262270Y1474897D1*
X1270870Y1474898D1*
X1270871Y1454802D1*
X1264172Y1465325D2*
X1257474Y1454801D1*
X1249374Y1474874D2*
X1238873D1*
X1244599Y1467225D1*
X1241725D1*
X1239824Y1466274D1*
X1238873Y1465323D1*
X1237901Y1462449D1*
Y1460548D1*
X1238874Y1457674D1*
X1240775Y1455751D1*
X1243649Y1454800D1*
X1246523D1*
X1249375Y1455751D1*
X1250325Y1456724D1*
X1251298Y1458625D1*
X1590348Y1338520D2*
X1598948D1*
X1601822Y1337548D1*
X1602795Y1336597D1*
X1603746Y1334696D1*
Y1332773D1*
X1602795Y1330871D1*
X1601823Y1329898D1*
X1598949Y1328948D1*
X1590349Y1328947D1*
X1590347Y1349043D1*
X1597047Y1338520D2*
X1603745Y1349044D1*
X1619493Y1349045D2*
X1619495Y1328971D1*
X1609921Y1342346D1*
X1624269Y1342347D1*
X1335772Y1324689D2*
Y1316089D1*
X1334799Y1313215D1*
X1333848Y1312242D1*
X1331947Y1311291D1*
X1330024D1*
X1328122Y1312242D1*
X1327150Y1313215D1*
X1326199Y1316089D1*
Y1324689D1*
X1346295D1*
X1335772Y1317990D2*
X1346295Y1311291D1*
X1326221Y1293642D2*
Y1303192D1*
X1334821Y1304143D1*
X1333870Y1303192D1*
X1332898Y1300318D1*
Y1297466D1*
X1333870Y1294592D1*
X1335772Y1292669D1*
X1338646Y1291718D1*
X1340547D1*
X1343421Y1292669D1*
X1345344Y1294592D1*
X1346295Y1297466D1*
Y1300318D1*
X1345344Y1303192D1*
X1344372Y1304143D1*
X1342470Y1305116D1*
X1156010Y1317276D2*
Y1308676D1*
X1155038Y1305802D1*
X1154087Y1304830D1*
X1152186Y1303879D1*
X1150263D1*
X1148361Y1304829D1*
X1147388Y1305802D1*
X1146438Y1308676D1*
X1146437Y1317276D1*
X1166533Y1317277D1*
X1156010Y1310578D2*
X1166534Y1303879D1*
X1149313Y1286229D2*
X1147411Y1287180D1*
X1146461Y1290054D1*
X1146460Y1291955D1*
X1147411Y1294829D1*
X1150285Y1296752D1*
X1155060Y1297703D1*
X1159835D1*
X1163660Y1296753D1*
X1165584Y1294830D1*
X1166534Y1291956D1*
Y1291005D1*
X1165584Y1288153D1*
X1163661Y1286230D1*
X1160787Y1285279D1*
X1159836D1*
X1156962Y1286229D1*
X1155061Y1288153D1*
X1154110Y1291005D1*
Y1291955D1*
X1155060Y1294829D1*
X1156961Y1296753D1*
X1159835Y1297703D1*
X1805474Y900925D2*
Y892325D1*
X1804501Y889451D1*
X1803550Y888478D1*
X1801649Y887527D1*
X1799726D1*
X1797824Y888478D1*
X1796852Y889451D1*
X1795901Y892325D1*
Y900925D1*
X1815997D1*
X1805474Y894226D2*
X1815997Y887527D1*
Y877527D2*
X1795923Y867954D1*
Y881352D1*
X1758739Y1042230D2*
Y1033630D1*
X1757766Y1030756D1*
X1756815Y1029783D1*
X1754914Y1028833D1*
X1752991D1*
X1751090Y1029783D1*
X1750117Y1030756D1*
X1749166Y1033630D1*
Y1042230D1*
X1769262D1*
X1758739Y1035531D2*
X1769262Y1028833D1*
X1749188Y1017882D2*
X1750139Y1020734D1*
X1752040Y1021706D1*
X1753964D1*
X1755865Y1020734D1*
X1756838Y1018832D1*
X1757788Y1015008D1*
X1758739Y1012134D1*
X1760662Y1010232D1*
X1762563Y1009282D1*
X1765438D1*
X1767339Y1010232D1*
X1768312Y1011183D1*
X1769262Y1014057D1*
Y1017882D1*
X1768312Y1020734D1*
X1767339Y1021706D1*
X1765438Y1022657D1*
X1762563D1*
X1760662Y1021706D1*
X1758739Y1019783D1*
X1757788Y1016931D1*
X1756838Y1013106D1*
X1755865Y1011183D1*
X1753964Y1010232D1*
X1752040D1*
X1750139Y1011183D1*
X1749188Y1014057D1*
Y1017882D1*
X1526894Y857423D2*
X1526895Y848823D1*
X1525922Y845949D1*
X1524972Y844976D1*
X1523070Y844025D1*
X1521147D1*
X1519246Y844976D1*
X1518273Y845949D1*
X1517322Y848823D1*
Y857423D1*
X1537418D1*
X1526895Y850724D2*
X1537418Y844026D1*
X1524022Y825403D2*
X1526895Y826376D1*
X1528819Y828277D1*
X1529769Y831151D1*
Y832102D1*
X1528819Y834976D1*
X1526895Y836877D1*
X1524021Y837850D1*
X1523070D1*
X1520196Y836877D1*
X1518295Y834976D1*
X1517345Y832102D1*
Y831151D1*
X1518295Y828277D1*
X1520197Y826376D1*
X1524022Y825403D1*
X1528819D1*
X1533594Y826376D1*
X1536468Y828278D1*
X1537419Y831152D1*
Y833053D1*
X1536468Y835927D1*
X1534544Y836877D1*
X1528026Y785933D2*
X1519426D1*
X1516552Y786905D1*
X1515579Y787856D1*
X1514629Y789757D1*
Y791681D1*
X1515579Y793582D1*
X1516552Y794555D1*
X1519426Y795506D1*
X1528026D1*
X1528027Y775410D1*
X1521328Y785933D2*
X1514630Y775409D1*
X1508453Y791658D2*
X1506529Y792631D1*
X1503655Y795482D1*
X1503656Y775408D1*
X1491731Y795482D2*
X1494606Y794531D1*
X1496529Y791657D1*
X1497480Y786882D1*
Y784008D1*
X1496530Y779233D1*
X1494607Y776359D1*
X1491733Y775408D1*
X1489831D1*
X1486957Y776358D1*
X1485056Y779232D1*
X1484083Y784007D1*
Y786881D1*
X1485055Y791657D1*
X1486956Y794531D1*
X1489830Y795481D1*
X1491731Y795482D1*
X1485055Y791657D2*
X1496530Y779233D1*
X1009491Y1121833D2*
X1009492Y1107485D1*
X1008541Y1104611D1*
X1006618Y1102709D1*
X1003744Y1101737D1*
X1001843D1*
X998969Y1102709D1*
X997045Y1104611D1*
X996094Y1107485D1*
Y1121832D1*
X989918Y1117986D2*
X987995Y1118958D1*
X985121Y1121810D1*
Y1101736D1*
X1358776Y1620746D2*
X1358777Y1606398D1*
X1357826Y1603524D1*
X1355903Y1601623D1*
X1353029Y1600650D1*
X1351127D1*
X1348253Y1601623D1*
X1346330Y1603524D1*
X1345379Y1606398D1*
Y1620746D1*
X1338230Y1615948D2*
Y1616899D1*
X1337280Y1618822D1*
X1336329Y1619773D1*
X1334406Y1620723D1*
X1330581D1*
X1328680Y1619772D1*
X1327729Y1618822D1*
X1326756Y1616898D1*
X1326757Y1614997D1*
X1327729Y1613074D1*
X1329631Y1610222D1*
X1339204Y1600649D1*
X1325806D1*
X1291217Y1074529D2*
Y1060181D1*
X1290267Y1057307D1*
X1288343Y1055405D1*
X1285469Y1054432D1*
X1283568D1*
X1280694Y1055405D1*
X1278771Y1057306D1*
X1277820Y1060180D1*
X1277819Y1074528D1*
X1269720Y1074506D2*
X1259219D1*
X1264945Y1066856D1*
X1262071D1*
X1260170Y1065906D1*
X1259219Y1064955D1*
X1258247Y1062081D1*
Y1060180D1*
X1259220Y1057306D1*
X1261121Y1055382D1*
X1263995Y1054432D1*
X1266869D1*
X1269721Y1055383D1*
X1270672Y1056355D1*
X1271644Y1058257D1*
X1990347Y1371911D2*
Y1357563D1*
X1989397Y1354689D1*
X1987474Y1352788D1*
X1984600Y1351815D1*
X1982698D1*
X1979824Y1352788D1*
X1977901Y1354689D1*
X1976950Y1357563D1*
Y1371911D1*
X1959300Y1371888D2*
X1968850D1*
X1969801Y1363289D1*
X1968851Y1364239D1*
X1965977Y1365212D1*
X1963125D1*
X1960251Y1364239D1*
X1958327Y1362337D1*
X1957377Y1359463D1*
Y1357562D1*
X1958328Y1354688D1*
X1960251Y1352765D1*
X1963125Y1351814D1*
X1965977D1*
X1968851Y1352765D1*
X1969802Y1353738D1*
X1970774Y1355639D1*
X1951202Y1348498D2*
X1933029Y1348497D1*
X1926853Y1368062D2*
X1924929Y1369035D1*
X1922055Y1371887D1*
X1922056Y1351813D1*
X636464Y1230616D2*
Y1216268D1*
X635514Y1213394D1*
X633590Y1211492D1*
X630716Y1210519D1*
X628815D1*
X625941Y1211492D1*
X624018Y1213393D1*
X623067Y1216267D1*
Y1230615D1*
X605417Y1230593D2*
X614968D1*
X615918Y1221993D1*
X614968Y1222944D1*
X612094Y1223916D1*
X609242D1*
X606368Y1222943D1*
X604444Y1221042D1*
X603494Y1218168D1*
Y1216267D1*
X604445Y1213393D1*
X606368Y1211469D1*
X609242Y1210519D1*
X612094D1*
X614968Y1211470D1*
X615919Y1212442D1*
X616891Y1214344D1*
X597319Y1207202D2*
X579146D1*
X571997Y1225816D2*
Y1226767D1*
X571046Y1228690D1*
X570096Y1229641D1*
X568172Y1230592D1*
X564347Y1230591D1*
X562446Y1229641D1*
X561496Y1228690D1*
X560523Y1226767D1*
Y1224865D1*
X561496Y1222942D1*
X563397Y1220090D1*
X572970Y1210518D1*
X559573Y1210517D1*
X1203601Y1993948D2*
X1217949Y1993949D1*
X1220824Y1992998D1*
X1222725Y1991075D1*
X1223698Y1988201D1*
Y1986300D1*
X1222725Y1983426D1*
X1220824Y1981502D1*
X1217950Y1980551D1*
X1203602D1*
X1203625Y1962901D2*
X1203624Y1972452D1*
X1212224Y1973403D1*
X1211274Y1972452D1*
X1210301Y1969578D1*
Y1966726D1*
X1211274Y1963852D1*
X1213175Y1961929D1*
X1216050Y1960978D1*
X1217951D1*
X1220825Y1961929D1*
X1222748Y1963853D1*
X1223699Y1966727D1*
X1223698Y1969579D1*
X1222748Y1972453D1*
X1221775Y1973403D1*
X1219874Y1974376D1*
X1227015Y1954803D2*
X1227016Y1936630D1*
X1203626Y1928530D2*
X1203627Y1918029D1*
X1211276Y1923755D1*
Y1920881D1*
X1212227Y1918980D1*
X1213177Y1918030D1*
X1216051Y1917057D1*
X1217953D1*
X1220827Y1918030D1*
X1222750Y1919931D1*
X1223700Y1922805D1*
Y1925679D1*
X1222749Y1928531D1*
X1221777Y1929482D1*
X1219875Y1930454D1*
X1347314Y636858D2*
X1361662Y636857D1*
X1364536Y635907D1*
X1366437Y633983D1*
X1367410Y631109D1*
Y629208D1*
X1366437Y626334D1*
X1364536Y624411D1*
X1361662Y623460D1*
X1347314D1*
X1347336Y605811D2*
Y615361D1*
X1355936Y616312D1*
X1354985Y615361D1*
X1354012Y612487D1*
Y609635D1*
X1354985Y606761D1*
X1356886Y604838D1*
X1359760Y603887D1*
X1361661D1*
X1364535Y604838D1*
X1366459Y606761D1*
X1367410Y609635D1*
Y612487D1*
X1366459Y615361D1*
X1365486Y616312D1*
X1363585Y617284D1*
X1370725Y597711D2*
Y579538D1*
X1367408Y563790D2*
X1347335Y563791D1*
X1360710Y573363D1*
Y559015D1*
M02*
