M48
INCH
T01C0.0118
T02C0.0256
T03C0.0354
T04C0.0362
T05C0.0504
T06C0.0669
T07C0.0906
T08C0.1181
%
T01
X+015564Y+013961
X+015574Y+013289
X+014702Y+012785
X+014890Y+012466
X+013792Y+012597
X+013330Y+014313
X+013953Y+014685
X+013397Y+015645
X+013873Y+016867
X+015289Y+015669
X+015785Y+015128
X+016558Y+013930
X+019521Y+011686
X+015295Y+008117
X+012631Y+009834
X+010874Y+009150
X+010244Y+009806
X+009979Y+009666
X+009979Y+009981
X+010292Y+010837
X+011319Y+012487
X+011755Y+013735
X+011942Y+015483
X+011717Y+016854
X+010008Y+014617
X+006380Y+014198
X+014190Y+019164
T02
X+010738Y+014582
X+010738Y+016503
T03
X+016732Y+012295
X+016732Y+013295
X+012795Y+013295
X+012795Y+012295
X+012442Y+009212
X+013149Y+008505
X+008858Y+012295
X+008858Y+013295
X+012295Y+016732
X+013295Y+016732
T04
X+018374Y+011417
X+018374Y+012402
X+018374Y+013189
X+018374Y+014173
X+014173Y+018374
X+013189Y+018374
X+012402Y+018374
X+011417Y+018374
X+007217Y+014173
X+007217Y+013189
X+007217Y+012402
X+007217Y+011417
X+011417Y+007217
X+012402Y+007217
X+013189Y+007217
X+014173Y+007217
T05
X+016658Y+008642
X+016658Y+007642
X+016658Y+006642
X+016658Y+005642
X+016658Y+004642
T06
X+018701Y+018701
X+006890Y+018701
X+006890Y+006890
X+018701Y+006890
T07
X+019441Y+010209
X+019441Y+015382
X+015382Y+019441
X+010209Y+019441
X+006150Y+015382
X+006150Y+010209
X+010209Y+006150
X+015382Y+006150
T08
X+020079Y+020079
X+005512Y+020079
X+005512Y+005512
X+020079Y+005512
T00
M30
