G04 DipTrace 4.1.3.1*
G04 TopMask.gbr*
%MOIN*%
G04 #@! TF.FileFunction,Soldermask,Top*
G04 #@! TF.Part,Single*
%AMOUTLINE23*
4,1,4,
0.0,0.044542,
0.044542,0.0,
0.0,-0.044542,
-0.044542,0.0,
0.0,0.044542,
0*%
%ADD30R,0.062992X0.062992*%
%ADD31C,0.062992*%
%ADD36C,0.11811*%
%ADD37C,0.066929*%
%ADD44C,0.045276*%
%ADD50C,0.141732*%
%ADD52C,0.066929*%
%ADD53R,0.066929X0.066929*%
%ADD54C,0.079528*%
%ADD56R,0.079528X0.079528*%
%ADD85OUTLINE23*%
%FSLAX26Y26*%
G04*
G70*
G90*
G75*
G01*
G04 TopMask*
%LPD*%
D30*
X1673229Y1229528D3*
D31*
X1673228Y1329528D3*
D30*
X885827Y1229528D3*
D31*
Y1329528D3*
D30*
X1229528Y1673228D3*
D31*
X1329528D3*
D85*
X1244172Y921182D3*
D31*
X1314883Y850471D3*
D30*
X1279529Y1229528D3*
D31*
X1279527Y1329528D3*
D36*
X2007874Y2007874D3*
X551181D3*
X2007874Y551181D3*
X551181D3*
D37*
X1870079Y1870079D3*
X688976D3*
Y688976D3*
X1870079D3*
D56*
X1665781Y864195D3*
D54*
X1665784Y764195D3*
X1665786Y664195D3*
X1665789Y564195D3*
X1665791Y464195D3*
D53*
X1837404Y1141728D3*
D52*
X1837402Y1240153D3*
X1837401Y1318893D3*
X1837399Y1417319D3*
D50*
X1944099Y1020864D3*
X1944090Y1538187D3*
D53*
X721654Y1417323D3*
D52*
Y1318898D3*
Y1240157D3*
Y1141732D3*
D50*
X614961Y1538189D3*
Y1020866D3*
D53*
X1417323Y1837402D3*
D52*
X1318898D3*
X1240157D3*
X1141732D3*
D50*
X1538189Y1944094D3*
X1020866D3*
D53*
X1141732Y721654D3*
D52*
X1240157D3*
X1318898D3*
X1417323D3*
D50*
X1020866Y614961D3*
X1538189D3*
D44*
X1073779Y1458184D3*
X1073775Y1650310D3*
M02*
