G04 DipTrace 4.1.3.1*
G04 TopSilk.gbr*
%MOIN*%
G04 #@! TF.FileFunction,Legend,Top*
G04 #@! TF.Part,Single*
%ADD10C,0.009843*%
%ADD13C,0.004724*%
%ADD60C,0.003088*%
%ADD61C,0.006176*%
%FSLAX26Y26*%
G04*
G70*
G90*
G75*
G01*
G04 TopSilk*
%LPD*%
X1743306Y1187009D2*
D10*
X1713377D1*
X1743306D2*
G03X1603154Y1187007I-70078J92562D01*
G01*
X1633083D1*
X955903Y1187008D2*
X925974D1*
X955903D2*
G03X815751Y1187008I-70076J92564D01*
G01*
X845680D1*
X1187008Y1603152D2*
Y1633081D1*
Y1603152D2*
G03X1187008Y1743304I92564J70076D01*
G01*
Y1713375D1*
X1164555Y901697D2*
X1185718Y922860D1*
X1164555Y901697D2*
G03X1263658Y1000799I115004J-15901D01*
G01*
X1242495Y979636D1*
X1349606Y1187009D2*
X1319676D1*
X1349606D2*
G03X1209453Y1187007I-70078J92562D01*
G01*
X1239382D1*
X1718141Y931126D2*
D13*
X1613417Y931123D1*
X1613431Y397265D1*
X1718155Y397268D1*
X1718141Y931126D1*
G36*
X1734915Y873882D2*
X1736179Y873799D1*
X1737421Y873552D1*
X1738621Y873145D1*
X1739757Y872585D1*
X1740810Y871881D1*
X1741763Y871046D1*
X1742598Y870093D1*
X1743302Y869040D1*
X1743863Y867904D1*
X1744270Y866704D1*
X1744517Y865462D1*
X1744600Y864197D1*
X1744517Y862933D1*
X1744270Y861691D1*
X1743863Y860491D1*
X1743302Y859355D1*
X1742599Y858301D1*
X1741763Y857349D1*
X1740811Y856514D1*
X1739758Y855810D1*
X1738621Y855249D1*
X1737422Y854842D1*
X1736179Y854595D1*
X1734915Y854512D1*
D1*
X1733651Y854595D1*
X1732408Y854842D1*
X1731209Y855249D1*
X1730073Y855809D1*
X1729019Y856513D1*
X1728067Y857349D1*
X1727231Y858301D1*
X1726527Y859354D1*
X1725967Y860491D1*
X1725560Y861690D1*
X1725313Y862933D1*
X1725230Y864197D1*
X1725313Y865461D1*
X1725560Y866704D1*
X1725967Y867903D1*
X1726527Y869039D1*
X1727231Y870093D1*
X1728066Y871045D1*
X1729019Y871881D1*
X1730072Y872584D1*
X1731208Y873145D1*
X1732408Y873552D1*
X1733650Y873799D1*
X1734915Y873882D1*
D1*
G37*
X1792717Y1279333D2*
D13*
X1792712Y1542916D1*
X1868254Y1542918D1*
X1792717Y1279719D2*
X1792721Y1016137D1*
X1868263Y1016138D1*
X2019924Y1542920D2*
X2319483Y1542926D1*
X2326176Y1544894D1*
X2329719Y1548398D1*
X2331294Y1553162D1*
Y1572060D1*
X2353735D1*
Y1554738D1*
X2350192Y1532257D1*
X2341137Y1523241D1*
X2329326Y1520446D1*
Y1517690D1*
X2330901Y1511036D1*
X2332870Y1508280D1*
X2336019Y1506312D1*
X2341138Y1505092D1*
X2353736D1*
X2353740Y1279344D1*
X2019935Y1016141D2*
X2319493Y1016146D1*
X2326186Y1014178D1*
X2329729Y1010674D1*
X2331304Y1005910D1*
X2331305Y987013D1*
X2353746D1*
X2353745Y1004336D1*
X2350201Y1026816D1*
X2341146Y1035832D1*
X2329335Y1038627D1*
Y1041383D1*
X2330910Y1048036D1*
X2332878Y1050792D1*
X2336028Y1052761D1*
X2341146Y1053981D1*
X2353744Y1053982D1*
X2353740Y1279730D1*
G36*
X1775790Y1131884D2*
X1774505Y1131969D1*
X1773243Y1132220D1*
X1772024Y1132634D1*
X1770869Y1133203D1*
X1769798Y1133918D1*
X1768830Y1134767D1*
X1767981Y1135735D1*
X1767266Y1136805D1*
X1766697Y1137960D1*
X1766283Y1139179D1*
X1766032Y1140442D1*
X1765947Y1141727D1*
X1766032Y1143011D1*
X1766283Y1144274D1*
X1766697Y1145493D1*
X1767266Y1146648D1*
X1767981Y1147718D1*
X1768830Y1148686D1*
X1769798Y1149535D1*
X1770869Y1150251D1*
X1772023Y1150820D1*
X1773242Y1151234D1*
X1774505Y1151485D1*
X1775790Y1151569D1*
D1*
X1777074Y1151485D1*
X1778337Y1151234D1*
X1779556Y1150820D1*
X1780711Y1150251D1*
X1781782Y1149536D1*
X1782750Y1148687D1*
X1783598Y1147719D1*
X1784314Y1146648D1*
X1784883Y1145494D1*
X1785297Y1144274D1*
X1785548Y1143012D1*
X1785632Y1141727D1*
X1785548Y1140442D1*
X1785297Y1139180D1*
X1784883Y1137960D1*
X1784314Y1136806D1*
X1783599Y1135735D1*
X1782750Y1134767D1*
X1781782Y1133918D1*
X1780711Y1133203D1*
X1779557Y1132634D1*
X1778338Y1132220D1*
X1777075Y1131969D1*
X1775790Y1131884D1*
D1*
G37*
X766339Y1279717D2*
D13*
Y1016134D1*
X690797D1*
X766339Y1279331D2*
Y1542913D1*
X690797D1*
X539126Y1016134D2*
X239567D1*
X232874Y1014165D1*
X229331Y1010661D1*
X227756Y1005898D1*
Y987000D1*
X205315D1*
Y1004323D1*
X208858Y1026803D1*
X217913Y1035819D1*
X229724Y1038614D1*
Y1041370D1*
X228150Y1048024D1*
X226181Y1050780D1*
X223031Y1052748D1*
X217913Y1053969D1*
X205315D1*
Y1279717D1*
X539125Y1542913D2*
X239567D1*
X232874Y1544882D1*
X229331Y1548386D1*
X227756Y1553150D1*
Y1572047D1*
X205315D1*
Y1554724D1*
X208858Y1532244D1*
X217913Y1523228D1*
X229724Y1520433D1*
Y1517677D1*
X228150Y1511024D1*
X226181Y1508268D1*
X223031Y1506299D1*
X217913Y1505079D1*
X205315D1*
Y1279331D1*
G36*
X783268Y1427165D2*
X784552Y1427081D1*
X785815Y1426830D1*
X787034Y1426416D1*
X788189Y1425847D1*
X789259Y1425131D1*
X790227Y1424283D1*
X791076Y1423315D1*
X791792Y1422244D1*
X792361Y1421089D1*
X792775Y1419870D1*
X793026Y1418608D1*
X793110Y1417323D1*
X793026Y1416038D1*
X792775Y1414775D1*
X792361Y1413556D1*
X791792Y1412402D1*
X791076Y1411331D1*
X790227Y1410363D1*
X789259Y1409514D1*
X788189Y1408799D1*
X787034Y1408230D1*
X785815Y1407816D1*
X784552Y1407565D1*
X783268Y1407480D1*
D1*
X781983Y1407565D1*
X780720Y1407816D1*
X779501Y1408230D1*
X778346Y1408799D1*
X777276Y1409514D1*
X776308Y1410363D1*
X775459Y1411331D1*
X774744Y1412402D1*
X774174Y1413556D1*
X773761Y1414775D1*
X773509Y1416038D1*
X773425Y1417323D1*
X773509Y1418608D1*
X773761Y1419870D1*
X774174Y1421089D1*
X774744Y1422244D1*
X775459Y1423315D1*
X776308Y1424283D1*
X777276Y1425131D1*
X778346Y1425847D1*
X779501Y1426416D1*
X780720Y1426830D1*
X781983Y1427081D1*
X783268Y1427165D1*
D1*
G37*
X1279717Y1792717D2*
D13*
X1016134D1*
Y1868259D1*
X1279331Y1792717D2*
X1542913D1*
Y1868259D1*
X1016134Y2019929D2*
Y2319488D1*
X1014165Y2326181D1*
X1010661Y2329724D1*
X1005898Y2331299D1*
X987000D1*
Y2353740D1*
X1004323D1*
X1026803Y2350197D1*
X1035819Y2341142D1*
X1038614Y2329331D1*
X1041370D1*
X1048024Y2330906D1*
X1050780Y2332874D1*
X1052748Y2336024D1*
X1053969Y2341142D1*
Y2353740D1*
X1279717D1*
X1542913Y2019930D2*
Y2319488D1*
X1544882Y2326181D1*
X1548386Y2329724D1*
X1553150Y2331299D1*
X1572047D1*
Y2353740D1*
X1554724D1*
X1532244Y2350197D1*
X1523228Y2341142D1*
X1520433Y2329331D1*
X1517677D1*
X1511024Y2330906D1*
X1508268Y2332874D1*
X1506299Y2336024D1*
X1505079Y2341142D1*
Y2353740D1*
X1279331D1*
G36*
X1427165Y1775787D2*
X1427081Y1774503D1*
X1426830Y1773240D1*
X1426416Y1772021D1*
X1425847Y1770866D1*
X1425131Y1769796D1*
X1424283Y1768828D1*
X1423315Y1767979D1*
X1422244Y1767264D1*
X1421089Y1766694D1*
X1419870Y1766280D1*
X1418608Y1766029D1*
X1417323Y1765945D1*
X1416038Y1766029D1*
X1414775Y1766280D1*
X1413556Y1766694D1*
X1412402Y1767264D1*
X1411331Y1767979D1*
X1410363Y1768828D1*
X1409514Y1769796D1*
X1408799Y1770866D1*
X1408230Y1772021D1*
X1407816Y1773240D1*
X1407565Y1774503D1*
X1407480Y1775787D1*
D1*
X1407565Y1777072D1*
X1407816Y1778335D1*
X1408230Y1779554D1*
X1408799Y1780709D1*
X1409514Y1781779D1*
X1410363Y1782747D1*
X1411331Y1783596D1*
X1412402Y1784311D1*
X1413556Y1784881D1*
X1414775Y1785295D1*
X1416038Y1785546D1*
X1417323Y1785630D1*
X1418608Y1785546D1*
X1419870Y1785295D1*
X1421089Y1784881D1*
X1422244Y1784311D1*
X1423315Y1783596D1*
X1424283Y1782747D1*
X1425131Y1781779D1*
X1425847Y1780709D1*
X1426416Y1779554D1*
X1426830Y1778335D1*
X1427081Y1777072D1*
X1427165Y1775787D1*
D1*
G37*
X1279339Y766339D2*
D13*
X1542921D1*
Y690797D1*
X1279724Y766339D2*
X1016142D1*
Y690797D1*
X1542921Y539126D2*
Y239567D1*
X1544890Y232874D1*
X1548394Y229331D1*
X1553157Y227756D1*
X1572055D1*
Y205315D1*
X1554732D1*
X1532252Y208858D1*
X1523236Y217913D1*
X1520441Y229724D1*
X1517685D1*
X1511031Y228150D1*
X1508276Y226181D1*
X1506307Y223031D1*
X1505087Y217913D1*
Y205315D1*
X1279339D1*
X1016142Y539125D2*
Y239567D1*
X1014173Y232874D1*
X1010669Y229331D1*
X1005906Y227756D1*
X987008D1*
Y205315D1*
X1004331D1*
X1026811Y208858D1*
X1035827Y217913D1*
X1038622Y229724D1*
X1041378D1*
X1048031Y228150D1*
X1050787Y226181D1*
X1052756Y223031D1*
X1053976Y217913D1*
Y205315D1*
X1279724D1*
G36*
X1131890Y783268D2*
X1131974Y784552D1*
X1132225Y785815D1*
X1132639Y787034D1*
X1133208Y788189D1*
X1133924Y789259D1*
X1134773Y790227D1*
X1135741Y791076D1*
X1136811Y791792D1*
X1137966Y792361D1*
X1139185Y792775D1*
X1140448Y793026D1*
X1141732Y793110D1*
X1143017Y793026D1*
X1144280Y792775D1*
X1145499Y792361D1*
X1146654Y791792D1*
X1147724Y791076D1*
X1148692Y790227D1*
X1149541Y789259D1*
X1150256Y788189D1*
X1150826Y787034D1*
X1151239Y785815D1*
X1151491Y784552D1*
X1151575Y783268D1*
D1*
X1151491Y781983D1*
X1151239Y780720D1*
X1150826Y779501D1*
X1150256Y778346D1*
X1149541Y777276D1*
X1148692Y776308D1*
X1147724Y775459D1*
X1146654Y774744D1*
X1145499Y774174D1*
X1144280Y773761D1*
X1143017Y773509D1*
X1141732Y773425D1*
X1140448Y773509D1*
X1139185Y773761D1*
X1137966Y774174D1*
X1136811Y774744D1*
X1135741Y775459D1*
X1134773Y776308D1*
X1133924Y777276D1*
X1133208Y778346D1*
X1132639Y779501D1*
X1132225Y780720D1*
X1131974Y781983D1*
X1131890Y783268D1*
D1*
G37*
X982047Y1428261D2*
D13*
X982042Y1680229D1*
X1165512Y1428264D2*
X1165507Y1680233D1*
X982047Y1428261D2*
G03X1165512Y1428264I91732J2D01*
G01*
X982042Y1680229D2*
G02X1165507Y1680233I91732J2D01*
G01*
X1751969Y2165354D2*
D10*
X2165354Y1751969D1*
X807087Y2165354D2*
X393701Y1751969D1*
Y807087D2*
X807087Y393701D1*
X2165354Y807087D2*
X1751969Y393701D1*
X1734953Y880505D2*
D61*
Y846061D1*
X1717753Y863261D2*
X1752197D1*
X1787496Y883357D2*
X1768395D1*
X1766494Y866157D1*
X1768395Y868059D1*
X1774143Y870004D1*
X1779847D1*
X1785595Y868059D1*
X1789442Y864256D1*
X1791343Y858508D1*
Y854706D1*
X1789442Y848958D1*
X1785595Y845111D1*
X1779847Y843210D1*
X1774143D1*
X1768395Y845111D1*
X1766494Y847056D1*
X1764549Y850859D1*
X1803695Y883402D2*
X1818993Y843210D1*
X1834292Y883402D1*
X1731506Y784891D2*
Y744699D1*
X1744904D1*
X1750652Y746645D1*
X1754499Y750447D1*
X1756400Y754294D1*
X1758301Y759998D1*
Y769592D1*
X1756400Y775340D1*
X1754499Y779143D1*
X1750652Y782990D1*
X1744904Y784891D1*
X1731506D1*
X1770653Y764773D2*
X1792760D1*
X1732526Y682967D2*
Y642775D1*
X1745924D1*
X1751672Y644721D1*
X1755518Y648523D1*
X1757420Y652370D1*
X1759321Y658074D1*
Y667669D1*
X1757420Y673417D1*
X1755518Y677219D1*
X1751672Y681066D1*
X1745924Y682967D1*
X1732526D1*
X1788872Y680071D2*
Y645627D1*
X1771672Y662827D2*
X1806116D1*
X1758112Y575192D2*
X1756211Y578995D1*
X1752364Y582841D1*
X1748561Y584743D1*
X1740912D1*
X1737065Y582841D1*
X1733263Y578995D1*
X1731317Y575192D1*
X1729416Y569444D1*
Y559849D1*
X1731317Y554146D1*
X1733263Y550299D1*
X1737065Y546496D1*
X1740912Y544551D1*
X1748561D1*
X1752364Y546496D1*
X1756211Y550299D1*
X1758112Y554146D1*
Y559849D1*
X1748561D1*
X1797258Y584743D2*
Y544551D1*
X1770463Y584743D1*
Y544551D1*
X1809609Y584743D2*
Y544551D1*
X1823007D1*
X1828755Y546496D1*
X1832601Y550299D1*
X1834503Y554146D1*
X1836404Y559849D1*
Y569444D1*
X1834503Y575192D1*
X1832601Y578995D1*
X1828755Y582841D1*
X1823007Y584743D1*
X1809609D1*
X1757239Y476794D2*
X1753437Y480641D1*
X1747689Y482542D1*
X1740040D1*
X1734292Y480641D1*
X1730445Y476794D1*
Y472991D1*
X1732390Y469145D1*
X1734292Y467243D1*
X1738094Y465342D1*
X1749590Y461495D1*
X1753437Y459594D1*
X1755338Y457649D1*
X1757239Y453846D1*
Y448098D1*
X1753437Y444295D1*
X1747689Y442350D1*
X1740040D1*
X1734292Y444295D1*
X1730445Y448098D1*
X1769591Y482542D2*
Y442350D1*
X1796386Y482542D2*
Y442350D1*
X1769591Y463397D2*
X1796386D1*
X1808737Y482542D2*
Y442350D1*
X1845938Y482542D2*
X1821088D1*
Y442350D1*
X1845938D1*
X1821088Y463397D2*
X1836387D1*
X1858289Y482542D2*
Y442350D1*
X1881237D1*
X1893588Y482542D2*
Y442350D1*
X1906986D1*
X1912734Y444295D1*
X1916580Y448098D1*
X1918482Y451945D1*
X1920383Y457649D1*
Y467243D1*
X1918482Y472991D1*
X1916580Y476794D1*
X1912734Y480641D1*
X1906986Y482542D1*
X1893588D1*
X1750456Y1405036D2*
D60*
Y1384940D1*
X1757155D1*
X1760029Y1385913D1*
X1761952Y1387814D1*
X1762903Y1389738D1*
X1763853Y1392590D1*
Y1397387D1*
X1762903Y1400261D1*
X1761952Y1402162D1*
X1760028Y1404086D1*
X1757154Y1405036D1*
X1750456D1*
X1770029Y1401190D2*
X1771952Y1402162D1*
X1774826Y1405014D1*
X1774827Y1384941D1*
X778033Y1399751D2*
Y1379655D1*
X784732D1*
X787606Y1380628D1*
X789529Y1382529D1*
X790480Y1384453D1*
X791431Y1387304D1*
Y1392102D1*
X790480Y1394976D1*
X789529Y1396877D1*
X787606Y1398801D1*
X784732Y1399751D1*
X778033D1*
X798579Y1394954D2*
Y1395904D1*
X799530Y1397828D1*
X800480Y1398778D1*
X802404Y1399729D1*
X806228D1*
X808130Y1398778D1*
X809080Y1397828D1*
X810053Y1395904D1*
Y1394003D1*
X809080Y1392080D1*
X807179Y1389228D1*
X797606Y1379655D1*
X811004D1*
X1397213Y1753802D2*
Y1733706D1*
X1403912D1*
X1406786Y1734679D1*
X1408709Y1736580D1*
X1409660Y1738504D1*
X1410610Y1741356D1*
Y1746153D1*
X1409660Y1749027D1*
X1408709Y1750928D1*
X1406786Y1752852D1*
X1403912Y1753802D1*
X1397213D1*
X1418709Y1753780D2*
X1429211D1*
X1423485Y1746131D1*
X1426359D1*
X1428260Y1745180D1*
X1429211Y1744230D1*
X1430183Y1741356D1*
Y1739454D1*
X1429211Y1736580D1*
X1427309Y1734657D1*
X1424435Y1733706D1*
X1421561D1*
X1418709Y1734657D1*
X1417759Y1735630D1*
X1416786Y1737531D1*
X1373230Y791618D2*
X1387440Y777408D1*
X1392177Y782144D1*
X1393521Y784864D1*
X1393537Y787569D1*
X1392849Y789601D1*
X1391505Y792290D1*
X1388112Y795682D1*
X1385408Y797042D1*
X1383391Y797714D1*
X1380671D1*
X1377967Y796354D1*
X1373230Y791618D1*
X1408049Y798017D2*
X1393855Y812211D1*
X1396544Y795985D1*
X1406689Y806130D1*
X1391298Y1372629D2*
Y1352533D1*
X1397997D1*
X1400871Y1353505D1*
X1402794Y1355407D1*
X1403745Y1357330D1*
X1404696Y1360182D1*
Y1364979D1*
X1403745Y1367853D1*
X1402794Y1369755D1*
X1400871Y1371678D1*
X1397997Y1372629D1*
X1391298D1*
X1422345Y1372607D2*
X1412795D1*
X1411844Y1364007D1*
X1412795Y1364958D1*
X1415669Y1365930D1*
X1418521D1*
X1421395Y1364958D1*
X1423318Y1363056D1*
X1424269Y1360182D1*
Y1358281D1*
X1423318Y1355407D1*
X1421395Y1353484D1*
X1418521Y1352533D1*
X1415669D1*
X1412795Y1353484D1*
X1411844Y1354456D1*
X1410871Y1356358D1*
X1668311Y975493D2*
X1653013D1*
X1650139Y976444D1*
X1649188Y977416D1*
X1648215Y979318D1*
Y981241D1*
X1649188Y983142D1*
X1650139Y984093D1*
X1653013Y985066D1*
X1654914D1*
X1668290Y967394D2*
Y956893D1*
X1660640Y962619D1*
Y959745D1*
X1659690Y957844D1*
X1658739Y956893D1*
X1655865Y955920D1*
X1653964D1*
X1651090Y956893D1*
X1649166Y958794D1*
X1648216Y961668D1*
Y964542D1*
X1649166Y967394D1*
X1650139Y968345D1*
X1652040Y969317D1*
X1816313Y1579298D2*
X1816314Y1563999D1*
X1815363Y1561125D1*
X1814390Y1560174D1*
X1812489Y1559202D1*
X1810566D1*
X1808664Y1560174D1*
X1807714Y1561125D1*
X1806741Y1563999D1*
Y1565900D1*
X1822489Y1575451D2*
X1824413Y1576424D1*
X1827286Y1579276D1*
X1827287Y1559202D1*
X1833463Y1555886D2*
X1851635D1*
X1857811Y1575452D2*
X1859734Y1576424D1*
X1862608Y1579276D1*
Y1559203D1*
X698636Y1583658D2*
Y1568359D1*
X697685Y1565485D1*
X696712Y1564535D1*
X694811Y1563562D1*
X692888D1*
X690986Y1564535D1*
X690036Y1565485D1*
X689063Y1568359D1*
Y1570261D1*
X704811Y1579811D2*
X706735Y1580784D1*
X709609Y1583636D1*
Y1563562D1*
X715784Y1560246D2*
X733957D1*
X741106Y1578861D2*
Y1579811D1*
X742056Y1581735D1*
X743007Y1582685D1*
X744930Y1583636D1*
X748755D1*
X750656Y1582685D1*
X751607Y1581735D1*
X752580Y1579811D1*
Y1577910D1*
X751607Y1575987D1*
X749706Y1573135D1*
X740133Y1563562D1*
X753530D1*
X943399Y2138633D2*
Y2123334D1*
X942449Y2120460D1*
X941476Y2119510D1*
X939575Y2118537D1*
X937651D1*
X935750Y2119510D1*
X934800Y2120460D1*
X933827Y2123334D1*
Y2125236D1*
X949575Y2134786D2*
X951499Y2135759D1*
X954373Y2138611D1*
Y2118537D1*
X960548Y2115221D2*
X978721D1*
X986820Y2138611D2*
X997321D1*
X991595Y2130962D1*
X994469D1*
X996371Y2130011D1*
X997321Y2129060D1*
X998294Y2126186D1*
Y2124285D1*
X997321Y2121411D1*
X995420Y2119488D1*
X992546Y2118537D1*
X989672D1*
X986820Y2119488D1*
X985869Y2120460D1*
X984897Y2122362D1*
X1020137Y804628D2*
Y789329D1*
X1019186Y786455D1*
X1018213Y785505D1*
X1016312Y784532D1*
X1014389D1*
X1012487Y785505D1*
X1011537Y786455D1*
X1010564Y789329D1*
Y791230D1*
X1026312Y800781D2*
X1028236Y801754D1*
X1031110Y804606D1*
Y784532D1*
X1037286Y781216D2*
X1055458D1*
X1071207Y784532D2*
Y804606D1*
X1061634Y791230D1*
X1075982D1*
X942913Y1541108D2*
X952486Y1548758D1*
X963009D1*
X942913Y1556407D2*
X952486Y1548758D1*
X946759Y1562583D2*
X945787Y1564506D1*
X942935Y1567380D1*
X963009Y1567381D1*
M02*
